<svg width="681" height="529" viewBox="0 0 681 529" fill="none" xmlns="http://www.w3.org/2000/svg">
<g clip-path="url(#clip0_145_1109)">
<path d="M0.00390625 0H680.767V528.354H0.00390625V0Z" fill="#C8F1F5"/>
<path opacity="0.675" d="M396.536 252.755L267.091 382.2L206.74 321.849L48.2344 480.35H624.135L396.536 252.755Z" fill="#FBFCFE"/>
<path opacity="0.675" d="M168.669 202.919C193.244 202.919 213.165 182.997 213.165 158.422C213.165 133.848 193.244 113.926 168.669 113.926C144.095 113.926 124.173 133.848 124.173 158.422C124.173 182.997 144.095 202.919 168.669 202.919Z" fill="#FBFCFE"/>
<path d="M129.15 240H132.15V261H129.15V240ZM157.907 244.95C159.907 244.95 161.487 245.53 162.647 246.69C163.827 247.85 164.417 249.57 164.417 251.85V261H161.537V252.18C161.537 250.64 161.177 249.48 160.457 248.7C159.757 247.92 158.747 247.53 157.427 247.53C155.967 247.53 154.807 247.99 153.947 248.91C153.087 249.81 152.657 251.11 152.657 252.81V261H149.777V252.18C149.777 250.64 149.417 249.48 148.697 248.7C147.997 247.92 146.987 247.53 145.667 247.53C144.207 247.53 143.047 247.99 142.187 248.91C141.327 249.81 140.897 251.11 140.897 252.81V261H138.017V245.1H140.777V247.47C141.357 246.65 142.117 246.03 143.057 245.61C143.997 245.17 145.067 244.95 146.267 244.95C147.507 244.95 148.607 245.2 149.567 245.7C150.527 246.2 151.267 246.93 151.787 247.89C152.387 246.97 153.217 246.25 154.277 245.73C155.357 245.21 156.567 244.95 157.907 244.95ZM175.506 244.95C177.706 244.95 179.386 245.49 180.546 246.57C181.726 247.65 182.316 249.26 182.316 251.4V261H179.586V258.9C179.106 259.64 178.416 260.21 177.516 260.61C176.636 260.99 175.586 261.18 174.366 261.18C172.586 261.18 171.156 260.75 170.076 259.89C169.016 259.03 168.486 257.9 168.486 256.5C168.486 255.1 168.996 253.98 170.016 253.14C171.036 252.28 172.656 251.85 174.876 251.85H179.436V251.28C179.436 250.04 179.076 249.09 178.356 248.43C177.636 247.77 176.576 247.44 175.176 247.44C174.236 247.44 173.316 247.6 172.416 247.92C171.516 248.22 170.756 248.63 170.136 249.15L168.936 246.99C169.756 246.33 170.736 245.83 171.876 245.49C173.016 245.13 174.226 244.95 175.506 244.95ZM174.846 258.96C175.946 258.96 176.896 258.72 177.696 258.24C178.496 257.74 179.076 257.04 179.436 256.14V253.92H174.996C172.556 253.92 171.336 254.74 171.336 256.38C171.336 257.18 171.646 257.81 172.266 258.27C172.886 258.73 173.746 258.96 174.846 258.96ZM202.944 245.1V258.84C202.944 261.62 202.254 263.67 200.874 264.99C199.494 266.33 197.434 267 194.694 267C193.194 267 191.764 266.79 190.404 266.37C189.044 265.97 187.944 265.39 187.104 264.63L188.484 262.41C189.224 263.05 190.134 263.55 191.214 263.91C192.314 264.29 193.444 264.48 194.604 264.48C196.464 264.48 197.834 264.04 198.714 263.16C199.614 262.28 200.064 260.94 200.064 259.14V257.88C199.384 258.7 198.544 259.32 197.544 259.74C196.564 260.14 195.494 260.34 194.334 260.34C192.814 260.34 191.434 260.02 190.194 259.38C188.974 258.72 188.014 257.81 187.314 256.65C186.614 255.47 186.264 254.13 186.264 252.63C186.264 251.13 186.614 249.8 187.314 248.64C188.014 247.46 188.974 246.55 190.194 245.91C191.434 245.27 192.814 244.95 194.334 244.95C195.534 244.95 196.644 245.17 197.664 245.61C198.704 246.05 199.554 246.7 200.214 247.56V245.1H202.944ZM194.664 257.82C195.704 257.82 196.634 257.6 197.454 257.16C198.294 256.72 198.944 256.11 199.404 255.33C199.884 254.53 200.124 253.63 200.124 252.63C200.124 251.09 199.614 249.85 198.594 248.91C197.574 247.95 196.264 247.47 194.664 247.47C193.044 247.47 191.724 247.95 190.704 248.91C189.684 249.85 189.174 251.09 189.174 252.63C189.174 253.63 189.404 254.53 189.864 255.33C190.344 256.11 190.994 256.72 191.814 257.16C192.654 257.6 193.604 257.82 194.664 257.82ZM222.817 253.14C222.817 253.36 222.797 253.65 222.757 254.01H209.857C210.037 255.41 210.647 256.54 211.687 257.4C212.747 258.24 214.057 258.66 215.617 258.66C217.517 258.66 219.047 258.02 220.207 256.74L221.797 258.6C221.077 259.44 220.177 260.08 219.097 260.52C218.037 260.96 216.847 261.18 215.527 261.18C213.847 261.18 212.357 260.84 211.057 260.16C209.757 259.46 208.747 258.49 208.027 257.25C207.327 256.01 206.977 254.61 206.977 253.05C206.977 251.51 207.317 250.12 207.997 248.88C208.697 247.64 209.647 246.68 210.847 246C212.067 245.3 213.437 244.95 214.957 244.95C216.477 244.95 217.827 245.3 219.007 246C220.207 246.68 221.137 247.64 221.797 248.88C222.477 250.12 222.817 251.54 222.817 253.14ZM214.957 247.38C213.577 247.38 212.417 247.8 211.477 248.64C210.557 249.48 210.017 250.58 209.857 251.94H220.057C219.897 250.6 219.347 249.51 218.407 248.67C217.487 247.81 216.337 247.38 214.957 247.38ZM243.993 261.24C241.193 261.24 239.013 260.44 237.453 258.84C235.893 257.24 235.113 254.94 235.113 251.94V240H238.113V251.82C238.113 256.32 240.083 258.57 244.023 258.57C245.943 258.57 247.413 258.02 248.433 256.92C249.453 255.8 249.963 254.1 249.963 251.82V240H252.873V251.94C252.873 254.96 252.093 257.27 250.533 258.87C248.973 260.45 246.793 261.24 243.993 261.24ZM273.063 261L268.533 254.55C267.973 254.59 267.533 254.61 267.213 254.61H262.023V261H259.023V240H267.213C269.933 240 272.073 240.65 273.633 241.95C275.193 243.25 275.973 245.04 275.973 247.32C275.973 248.94 275.573 250.32 274.773 251.46C273.973 252.6 272.833 253.43 271.353 253.95L276.333 261H273.063ZM267.123 252.06C269.023 252.06 270.473 251.65 271.473 250.83C272.473 250.01 272.973 248.84 272.973 247.32C272.973 245.8 272.473 244.64 271.473 243.84C270.473 243.02 269.023 242.61 267.123 242.61H262.023V252.06H267.123ZM280.82 240H283.82V258.39H295.19V261H280.82V240ZM314.699 244.95C316.239 244.95 317.619 245.29 318.839 245.97C320.059 246.65 321.009 247.6 321.689 248.82C322.389 250.04 322.739 251.45 322.739 253.05C322.739 254.65 322.389 256.07 321.689 257.31C321.009 258.53 320.059 259.48 318.839 260.16C317.619 260.84 316.239 261.18 314.699 261.18C313.519 261.18 312.439 260.95 311.459 260.49C310.479 260.03 309.669 259.36 309.029 258.48V261H306.269V238.74H309.149V247.5C309.789 246.66 310.589 246.03 311.549 245.61C312.509 245.17 313.559 244.95 314.699 244.95ZM314.459 258.66C315.479 258.66 316.389 258.43 317.189 257.97C318.009 257.49 318.649 256.83 319.109 255.99C319.589 255.13 319.829 254.15 319.829 253.05C319.829 251.95 319.589 250.98 319.109 250.14C318.649 249.28 318.009 248.62 317.189 248.16C316.389 247.7 315.479 247.47 314.459 247.47C313.459 247.47 312.549 247.7 311.729 248.16C310.909 248.62 310.269 249.28 309.809 250.14C309.349 250.98 309.119 251.95 309.119 253.05C309.119 254.15 309.349 255.13 309.809 255.99C310.269 256.83 310.909 257.49 311.729 257.97C312.549 258.43 313.459 258.66 314.459 258.66ZM329.478 247.77C329.978 246.85 330.718 246.15 331.698 245.67C332.678 245.19 333.868 244.95 335.268 244.95V247.74C335.108 247.72 334.888 247.71 334.608 247.71C333.048 247.71 331.818 248.18 330.918 249.12C330.038 250.04 329.598 251.36 329.598 253.08V261H326.718V245.1H329.478V247.77ZM345.481 261.18C343.901 261.18 342.481 260.83 341.221 260.13C339.961 259.43 338.971 258.47 338.251 257.25C337.551 256.01 337.201 254.61 337.201 253.05C337.201 251.49 337.551 250.1 338.251 248.88C338.971 247.64 339.961 246.68 341.221 246C342.481 245.3 343.901 244.95 345.481 244.95C347.061 244.95 348.471 245.3 349.711 246C350.971 246.68 351.951 247.64 352.651 248.88C353.371 250.1 353.731 251.49 353.731 253.05C353.731 254.61 353.371 256.01 352.651 257.25C351.951 258.47 350.971 259.43 349.711 260.13C348.471 260.83 347.061 261.18 345.481 261.18ZM345.481 258.66C346.501 258.66 347.411 258.43 348.211 257.97C349.031 257.49 349.671 256.83 350.131 255.99C350.591 255.13 350.821 254.15 350.821 253.05C350.821 251.95 350.591 250.98 350.131 250.14C349.671 249.28 349.031 248.62 348.211 248.16C347.411 247.7 346.501 247.47 345.481 247.47C344.461 247.47 343.541 247.7 342.721 248.16C341.921 248.62 341.281 249.28 340.801 250.14C340.341 250.98 340.111 251.95 340.111 253.05C340.111 254.15 340.341 255.13 340.801 255.99C341.281 256.83 341.921 257.49 342.721 257.97C343.541 258.43 344.461 258.66 345.481 258.66ZM363.894 253.59L360.594 256.65V261H357.714V238.74H360.594V253.02L369.264 245.1H372.744L366.054 251.67L373.404 261H369.864L363.894 253.59ZM389.897 253.14C389.897 253.36 389.877 253.65 389.837 254.01H376.937C377.117 255.41 377.727 256.54 378.767 257.4C379.827 258.24 381.137 258.66 382.697 258.66C384.597 258.66 386.127 258.02 387.287 256.74L388.877 258.6C388.157 259.44 387.257 260.08 386.177 260.52C385.117 260.96 383.927 261.18 382.607 261.18C380.927 261.18 379.437 260.84 378.137 260.16C376.837 259.46 375.827 258.49 375.107 257.25C374.407 256.01 374.057 254.61 374.057 253.05C374.057 251.51 374.397 250.12 375.077 248.88C375.777 247.64 376.727 246.68 377.927 246C379.147 245.3 380.517 244.95 382.037 244.95C383.557 244.95 384.907 245.3 386.087 246C387.287 246.68 388.217 247.64 388.877 248.88C389.557 250.12 389.897 251.54 389.897 253.14ZM382.037 247.38C380.657 247.38 379.497 247.8 378.557 248.64C377.637 249.48 377.097 250.58 376.937 251.94H387.137C386.977 250.6 386.427 249.51 385.487 248.67C384.567 247.81 383.417 247.38 382.037 247.38ZM408.763 261.18C407.183 261.18 405.763 260.83 404.503 260.13C403.243 259.43 402.253 258.47 401.533 257.25C400.833 256.01 400.483 254.61 400.483 253.05C400.483 251.49 400.833 250.1 401.533 248.88C402.253 247.64 403.243 246.68 404.503 246C405.763 245.3 407.183 244.95 408.763 244.95C410.343 244.95 411.753 245.3 412.993 246C414.253 246.68 415.233 247.64 415.933 248.88C416.653 250.1 417.013 251.49 417.013 253.05C417.013 254.61 416.653 256.01 415.933 257.25C415.233 258.47 414.253 259.43 412.993 260.13C411.753 260.83 410.343 261.18 408.763 261.18ZM408.763 258.66C409.783 258.66 410.693 258.43 411.493 257.97C412.313 257.49 412.953 256.83 413.413 255.99C413.873 255.13 414.103 254.15 414.103 253.05C414.103 251.95 413.873 250.98 413.413 250.14C412.953 249.28 412.313 248.62 411.493 248.16C410.693 247.7 409.783 247.47 408.763 247.47C407.743 247.47 406.823 247.7 406.003 248.16C405.203 248.62 404.563 249.28 404.083 250.14C403.623 250.98 403.393 251.95 403.393 253.05C403.393 254.15 403.623 255.13 404.083 255.99C404.563 256.83 405.203 257.49 406.003 257.97C406.823 258.43 407.743 258.66 408.763 258.66ZM423.756 247.77C424.256 246.85 424.996 246.15 425.976 245.67C426.956 245.19 428.146 244.95 429.546 244.95V247.74C429.386 247.72 429.166 247.71 428.886 247.71C427.326 247.71 426.096 248.18 425.196 249.12C424.316 250.04 423.876 251.36 423.876 253.08V261H420.996V245.1H423.756V247.77ZM455.727 253.14C455.727 253.36 455.707 253.65 455.667 254.01H442.767C442.947 255.41 443.557 256.54 444.597 257.4C445.657 258.24 446.967 258.66 448.527 258.66C450.427 258.66 451.957 258.02 453.117 256.74L454.707 258.6C453.987 259.44 453.087 260.08 452.007 260.52C450.947 260.96 449.757 261.18 448.437 261.18C446.757 261.18 445.267 260.84 443.967 260.16C442.667 259.46 441.657 258.49 440.937 257.25C440.237 256.01 439.887 254.61 439.887 253.05C439.887 251.51 440.227 250.12 440.907 248.88C441.607 247.64 442.557 246.68 443.757 246C444.977 245.3 446.347 244.95 447.867 244.95C449.387 244.95 450.737 245.3 451.917 246C453.117 246.68 454.047 247.64 454.707 248.88C455.387 250.12 455.727 251.54 455.727 253.14ZM447.867 247.38C446.487 247.38 445.327 247.8 444.387 248.64C443.467 249.48 442.927 250.58 442.767 251.94H452.967C452.807 250.6 452.257 249.51 451.317 248.67C450.397 247.81 449.247 247.38 447.867 247.38ZM469.427 261L464.837 254.91L460.187 261H456.977L463.247 252.87L457.277 245.1H460.487L464.867 250.83L469.217 245.1H472.367L466.367 252.87L472.697 261H469.427ZM484.269 244.95C485.809 244.95 487.189 245.29 488.409 245.97C489.629 246.65 490.579 247.6 491.259 248.82C491.959 250.04 492.309 251.45 492.309 253.05C492.309 254.65 491.959 256.07 491.259 257.31C490.579 258.53 489.629 259.48 488.409 260.16C487.189 260.84 485.809 261.18 484.269 261.18C483.129 261.18 482.079 260.96 481.119 260.52C480.179 260.08 479.379 259.44 478.719 258.6V266.82H475.839V245.1H478.599V247.62C479.239 246.74 480.049 246.08 481.029 245.64C482.009 245.18 483.089 244.95 484.269 244.95ZM484.029 258.66C485.049 258.66 485.959 258.43 486.759 257.97C487.579 257.49 488.219 256.83 488.679 255.99C489.159 255.13 489.399 254.15 489.399 253.05C489.399 251.95 489.159 250.98 488.679 250.14C488.219 249.28 487.579 248.62 486.759 248.16C485.959 247.7 485.049 247.47 484.029 247.47C483.029 247.47 482.119 247.71 481.299 248.19C480.499 248.65 479.859 249.3 479.379 250.14C478.919 250.98 478.689 251.95 478.689 253.05C478.689 254.15 478.919 255.13 479.379 255.99C479.839 256.83 480.479 257.49 481.299 257.97C482.119 258.43 483.029 258.66 484.029 258.66ZM496.289 245.1H499.169V261H496.289V245.1ZM497.729 242.04C497.169 242.04 496.699 241.86 496.319 241.5C495.959 241.14 495.779 240.7 495.779 240.18C495.779 239.66 495.959 239.22 496.319 238.86C496.699 238.48 497.169 238.29 497.729 238.29C498.289 238.29 498.749 238.47 499.109 238.83C499.489 239.17 499.679 239.6 499.679 240.12C499.679 240.66 499.489 241.12 499.109 241.5C498.749 241.86 498.289 242.04 497.729 242.04ZM507.428 247.77C507.928 246.85 508.668 246.15 509.647 245.67C510.628 245.19 511.818 244.95 513.218 244.95V247.74C513.058 247.72 512.838 247.71 512.558 247.71C510.998 247.71 509.768 248.18 508.868 249.12C507.988 250.04 507.548 251.36 507.548 253.08V261H504.668V245.1H507.428V247.77ZM530.991 253.14C530.991 253.36 530.971 253.65 530.931 254.01H518.031C518.211 255.41 518.821 256.54 519.861 257.4C520.921 258.24 522.231 258.66 523.791 258.66C525.691 258.66 527.221 258.02 528.381 256.74L529.971 258.6C529.251 259.44 528.351 260.08 527.271 260.52C526.211 260.96 525.021 261.18 523.701 261.18C522.021 261.18 520.531 260.84 519.231 260.16C517.931 259.46 516.921 258.49 516.201 257.25C515.501 256.01 515.151 254.61 515.151 253.05C515.151 251.51 515.491 250.12 516.171 248.88C516.871 247.64 517.821 246.68 519.021 246C520.241 245.3 521.611 244.95 523.131 244.95C524.651 244.95 526.001 245.3 527.181 246C528.381 246.68 529.311 247.64 529.971 248.88C530.651 250.12 530.991 251.54 530.991 253.14ZM523.131 247.38C521.751 247.38 520.591 247.8 519.651 248.64C518.731 249.48 518.191 250.58 518.031 251.94H528.231C528.071 250.6 527.521 249.51 526.581 248.67C525.661 247.81 524.511 247.38 523.131 247.38ZM549.99 238.74V261H547.23V258.48C546.59 259.36 545.78 260.03 544.8 260.49C543.82 260.95 542.74 261.18 541.56 261.18C540.02 261.18 538.64 260.84 537.42 260.16C536.2 259.48 535.24 258.53 534.54 257.31C533.86 256.07 533.52 254.65 533.52 253.05C533.52 251.45 533.86 250.04 534.54 248.82C535.24 247.6 536.2 246.65 537.42 245.97C538.64 245.29 540.02 244.95 541.56 244.95C542.7 244.95 543.75 245.17 544.71 245.61C545.67 246.03 546.47 246.66 547.11 247.5V238.74H549.99ZM541.8 258.66C542.8 258.66 543.71 258.43 544.53 257.97C545.35 257.49 545.99 256.83 546.45 255.99C546.91 255.13 547.14 254.15 547.14 253.05C547.14 251.95 546.91 250.98 546.45 250.14C545.99 249.28 545.35 248.62 544.53 248.16C543.71 247.7 542.8 247.47 541.8 247.47C540.78 247.47 539.86 247.7 539.04 248.16C538.24 248.62 537.6 249.28 537.12 250.14C536.66 250.98 536.43 251.95 536.43 253.05C536.43 254.15 536.66 255.13 537.12 255.99C537.6 256.83 538.24 257.49 539.04 257.97C539.86 258.43 540.78 258.66 541.8 258.66Z" fill="#263C58"/>
</g>
<defs>
<clipPath id="clip0_145_1109">
<rect width="680.764" height="528.354" fill="white"/>
</clipPath>
</defs>
</svg>
