<svg width="400" height="52" viewBox="0 0 400 52" fill="none" xmlns="http://www.w3.org/2000/svg">
<path d="M33.0808 4.9115C29.4694 1.87789 24.4856 0.361084 18.1294 0.361084H0V3.68361H18.1294C23.4744 3.68361 27.5914 4.9115 30.4806 7.29506C33.2975 9.67861 34.7421 13.0734 34.7421 17.4071C34.7421 21.8131 33.2975 25.2078 30.4806 27.5191C27.5914 29.9027 23.4744 31.0583 18.1294 31.0583H0V50.9213H3.68367V34.3809H18.1294C24.4856 34.3809 29.4694 32.9363 33.0808 29.9027C36.6923 26.8691 38.498 22.752 38.498 17.4071C38.498 12.1344 36.6923 7.94512 33.0808 4.9115Z" fill="#357EC6"/>
<path d="M50.927 0.361084V50.9213H54.6107V0.361084H50.927Z" fill="#357EC6"/>
<path d="M103.937 50.9213H108.271L88.8415 24.7744L106.899 0.361084H102.782L86.6746 22.102L70.5676 0.361084H66.2338L84.2911 24.8467L64.8615 50.9213H69.1953L86.5302 27.5191L103.937 50.9213Z" fill="#357EC6"/>
<path d="M149.668 23.6188H116.949V26.8691H149.668V23.6188ZM149.668 0.361084H116.949V3.68361H149.668V0.361084ZM116.949 47.5988V50.9213H149.668V47.5988H116.949Z" fill="#357EC6"/>
<path d="M165.336 0.361084V50.9213H198.128V47.5988H169.02V0.361084H165.336Z" fill="#357EC6"/>
<path d="M207.658 0.361084V3.68361H240.016V0.361084H207.658ZM207.658 50.9213H211.342V28.6026H240.016V25.28H207.658V50.9213Z" fill="#357EC6"/>
<path d="M260.536 47.96C264.509 50.1991 268.987 51.2825 273.971 51.2825C278.882 51.2825 283.361 50.1991 287.405 47.96C291.378 45.7931 294.484 42.6873 296.795 38.7869C299.106 34.8865 300.262 30.5528 300.262 25.6412C300.262 20.8019 299.106 16.3959 296.795 12.4956C294.484 8.59523 291.378 5.56162 287.405 3.32252C283.361 1.15566 278.882 0 273.971 0C268.987 0 264.509 1.15566 260.536 3.39476C256.491 5.63385 253.386 8.66746 251.074 12.5678C248.763 16.4682 247.68 20.8741 247.68 25.6412C247.68 30.4806 248.763 34.8143 251.074 38.7147C253.386 42.615 256.491 45.7209 260.536 47.96ZM285.455 44.9986C281.988 46.9488 278.16 47.8877 273.971 47.8877C269.709 47.8877 265.881 46.9488 262.414 44.9986C258.947 43.1206 256.275 40.4482 254.325 37.0534C252.302 33.6586 251.363 29.8305 251.363 25.6412C251.363 21.452 252.302 17.6961 254.325 14.3013C256.275 10.9066 258.947 8.23409 262.414 6.28391C265.881 4.40596 269.709 3.39476 273.971 3.39476C278.16 3.39476 281.988 4.40596 285.455 6.28391C288.85 8.23409 291.522 10.9066 293.545 14.3013C295.495 17.6961 296.506 21.452 296.506 25.6412C296.506 29.8305 295.495 33.6586 293.545 37.0534C291.522 40.4482 288.85 43.1206 285.455 44.9986Z" fill="#357EC6"/>
<path d="M322.012 3.68361V50.9213H325.696V3.68361H343.897V0.361084H303.81V3.68361H322.012Z" fill="#357EC6"/>
<path d="M360.274 47.96C364.247 50.1991 368.725 51.2825 373.709 51.2825C378.62 51.2825 383.098 50.1991 387.143 47.96C391.116 45.7931 394.222 42.6873 396.533 38.7869C398.844 34.8865 400 30.5528 400 25.6412C400 20.8019 398.844 16.3959 396.533 12.4956C394.222 8.59523 391.116 5.56162 387.143 3.32252C383.098 1.15566 378.62 0 373.709 0C368.725 0 364.247 1.15566 360.274 3.39476C356.229 5.63385 353.124 8.66746 350.812 12.5678C348.501 16.4682 347.417 20.8741 347.417 25.6412C347.417 30.4806 348.501 34.8143 350.812 38.7147C353.124 42.615 356.229 45.7209 360.274 47.96ZM385.193 44.9986C381.726 46.9488 377.898 47.8877 373.709 47.8877C369.447 47.8877 365.619 46.9488 362.152 44.9986C358.685 43.1206 356.013 40.4482 354.062 37.0534C352.04 33.6586 351.101 29.8305 351.101 25.6412C351.101 21.452 352.04 17.6961 354.062 14.3013C356.013 10.9066 358.685 8.23409 362.152 6.28391C365.619 4.40596 369.447 3.39476 373.709 3.39476C377.898 3.39476 381.726 4.40596 385.193 6.28391C388.588 8.23409 391.26 10.9066 393.283 14.3013C395.233 17.6961 396.244 21.452 396.244 25.6412C396.244 29.8305 395.233 33.6586 393.283 37.0534C391.26 40.4482 388.588 43.1206 385.193 44.9986Z" fill="#357EC6"/>
</svg>
