<svg width="507" height="65" viewBox="0 0 507 65" fill="none" xmlns="http://www.w3.org/2000/svg">
<path d="M41.9296 6.22534C37.3521 2.38027 31.0352 0.457733 22.9789 0.457733H0V4.669H22.9789C29.7535 4.669 34.9718 6.22534 38.6338 9.24647C42.2042 12.2676 44.0352 16.5704 44.0352 22.0634C44.0352 27.6479 42.2042 31.9507 38.6338 34.8803C34.9718 37.9014 29.7535 39.3662 22.9789 39.3662H0V64.5422H4.66901V43.5775H22.9789C31.0352 43.5775 37.3521 41.7465 41.9296 37.9014C46.5071 34.0563 48.7958 28.838 48.7958 22.0634C48.7958 15.3803 46.5071 10.0704 41.9296 6.22534Z" fill="#272B3C"/>
<path d="M64.5494 0.457733V64.5422H69.2184V0.457733H64.5494Z" fill="#263C58"/>
<path d="M131.739 64.5422H137.232L112.606 31.4014L135.493 0.457733H130.275L109.859 28.0141L89.4436 0.457733H83.9507L106.838 31.4929L82.2112 64.5422H87.7042L109.676 34.8803L131.739 64.5422Z" fill="#244C74"/>
<path d="M189.703 29.9366H148.231V34.0563H189.703V29.9366ZM189.703 0.457733H148.231V4.669H189.703V0.457733ZM148.231 60.331V64.5422H189.703V60.331H148.231Z" fill="#235D90"/>
<path d="M209.562 0.457733V64.5422H251.125V60.331H214.231V0.457733H209.562Z" fill="#226EAD"/>
<path d="M263.204 0.457733V4.669H304.218V0.457733H263.204ZM263.204 64.5422H267.873V36.2535H304.218V32.0422H263.204V64.5422Z" fill="#357EC6"/>
<path d="M330.227 60.7887C335.262 63.6268 340.938 65 347.255 65C353.48 65 359.156 63.6268 364.283 60.7887C369.318 58.0423 373.255 54.1056 376.185 49.162C379.114 44.2183 380.579 38.7253 380.579 32.5C380.579 26.3662 379.114 20.7817 376.185 15.838C373.255 10.8944 369.318 7.04929 364.283 4.21126C359.156 1.46478 353.48 0 347.255 0C340.938 0 335.262 1.46479 330.227 4.30282C325.1 7.14084 321.164 10.9859 318.234 15.9296C315.304 20.8732 313.931 26.4577 313.931 32.5C313.931 38.6338 315.304 44.1268 318.234 49.0704C321.164 54.0141 325.1 57.9507 330.227 60.7887ZM361.811 57.0352C357.417 59.507 352.565 60.6972 347.255 60.6972C341.854 60.6972 337.002 59.507 332.607 57.0352C328.213 54.6549 324.825 51.2676 322.354 46.9648C319.79 42.662 318.6 37.8099 318.6 32.5C318.6 27.1901 319.79 22.4296 322.354 18.1268C324.825 13.8239 328.213 10.4366 332.607 7.96479C337.002 5.58451 341.854 4.30282 347.255 4.30282C352.565 4.30282 357.417 5.58451 361.811 7.96479C366.114 10.4366 369.502 13.8239 372.065 18.1268C374.537 22.4296 375.818 27.1901 375.818 32.5C375.818 37.8099 374.537 42.662 372.065 46.9648C369.502 51.2676 366.114 54.6549 361.811 57.0352Z" fill="#598EDC"/>
<path d="M408.147 4.669V64.5422H412.816V4.669H435.886V0.457733H385.076V4.669H408.147Z" fill="#66A9DA"/>
<path d="M456.644 60.7887C461.679 63.6268 467.355 65 473.672 65C479.897 65 485.573 63.6268 490.7 60.7887C495.735 58.0423 499.672 54.1056 502.601 49.162C505.531 44.2183 506.996 38.7253 506.996 32.5C506.996 26.3662 505.531 20.7817 502.601 15.838C499.672 10.8944 495.735 7.04929 490.7 4.21126C485.573 1.46478 479.897 0 473.672 0C467.355 0 461.679 1.46479 456.644 4.30282C451.517 7.14084 447.58 10.9859 444.651 15.9296C441.721 20.8732 440.348 26.4577 440.348 32.5C440.348 38.6338 441.721 44.1268 444.651 49.0704C447.58 54.0141 451.517 57.9507 456.644 60.7887ZM488.228 57.0352C483.834 59.507 478.982 60.6972 473.672 60.6972C468.27 60.6972 463.418 59.507 459.024 57.0352C454.63 54.6549 451.242 51.2676 448.77 46.9648C446.207 42.662 445.017 37.8099 445.017 32.5C445.017 27.1901 446.207 22.4296 448.77 18.1268C451.242 13.8239 454.63 10.4366 459.024 7.96479C463.418 5.58451 468.27 4.30282 473.672 4.30282C478.982 4.30282 483.834 5.58451 488.228 7.96479C492.531 10.4366 495.918 13.8239 498.482 18.1268C500.953 22.4296 502.235 27.1901 502.235 32.5C502.235 37.8099 500.953 42.662 498.482 46.9648C495.918 51.2676 492.531 54.6549 488.228 57.0352Z" fill="#6DC7D0"/>
</svg>
